<?xml version="1.0" encoding="UTF-8"?>
<!-- Generated by Pixelmator Pro 3.7 -->
<svg width="1848" height="2245" viewBox="0 0 1848 2245" xmlns="http://www.w3.org/2000/svg">
    <radialGradient id="radialGradient1" cx="280.443477" cy="2232.880894" r="3806.265203" fx="280.443477" fy="2232.880894" gradientUnits="userSpaceOnUse">
        <stop offset="0" stop-color="#000000" stop-opacity="1"/>
        <stop offset="1" stop-color="#737373" stop-opacity="1"/>
    </radialGradient>
    <path id="Path" fill="url(#radialGradient1)" fill-rule="evenodd" stroke="none" d="M 934 2244 C 934 2244 1220.354614 2266.093262 1327 2098 L 1324.321655 2098.995117 C 1462.132813 1918.360352 1453.765869 1528.465088 1209 1120 C 1149.154663 1020.130127 1042.703613 916.476196 914.367065 827.003784 C 884.096741 831.696777 854.019287 835.503052 824.230286 838.492798 C 926.747131 916.2854 1013.843018 1011.050537 1061 1119 C 1180.75415 1393.135254 1321.300415 1980.315186 1113.076782 2177.472656 L 1080.199951 2189.686523 C 852.529785 2086.983887 591.787537 1398.746582 752.440308 844.189331 C 695.457458 847.52478 639.862122 847.978638 586.359863 846.069092 C 380.689178 1462.228516 591.067932 2204.467529 875 2240 C 896.233582 2242.657227 916.294983 2243.805908 935.234375 2243.541504 L 934 2244 Z M 608.838318 783.577515 C 600.85376 804.239868 593.365479 825.081299 586.359863 846.069092 C 187.656357 831.839111 -94.806938 686.356812 31 624 C 195.804169 542.313965 432.207916 581.945801 653.830139 680.117676 C 718.129211 547.911987 805.208008 426.017944 919 324 C 1203.187622 69.217285 1424.903076 -11.610596 1556.963013 2.322021 L 1552 1 C 1552 1 1720.078979 16.659668 1781 62 L 1773.311035 59.951904 C 1870.748169 112.890869 1877.1073 244.352051 1767 371 C 1523.627808 650.932495 1209.810303 781.199829 914.367065 827.003784 C 882.601135 804.857544 849.494446 783.580078 815.421692 763.44397 C 802.474365 765.776855 789.625183 767.888184 776.882446 769.788086 C 773.452759 779.078003 770.153381 788.41687 766.982056 797.801147 C 786.475708 810.789795 805.607422 824.361206 824.230286 838.492798 C 800.093994 840.915283 776.147095 842.801636 752.440308 844.189331 C 756.951843 828.615845 761.795776 813.147827 766.982056 797.801147 C 755.585388 790.20752 744.065063 782.812988 732.450378 775.622314 C 689.777039 780.468628 648.462158 782.984009 608.838318 783.577515 Z M 634.857666 720.892822 C 667.695251 737.524292 700.431274 755.799072 732.450378 775.622314 C 747.105347 773.958008 761.920532 772.018799 776.882446 769.788086 C 779.77533 761.952148 782.760986 754.151001 785.840698 746.387085 C 742.919678 722.246948 698.677551 699.983765 653.830139 680.117676 C 647.270264 693.605469 640.94751 707.200562 634.857666 720.892822 Z M 1648.267212 36.176758 C 1498.604858 43.762939 1271.518311 150.547363 990 432 C 898.146851 523.831665 831.604248 631.017822 785.840698 746.387085 C 795.77478 751.974365 805.638062 757.662109 815.421692 763.44397 C 1060.597412 719.26709 1340.958252 595.610474 1600 323 C 1709.618164 207.640015 1718.966919 92.395264 1648.267212 36.176758 Z M 1648.267212 36.176758 C 1660.966187 35.532959 1673.107788 35.603516 1684.677856 36.342041 L 1621.19165 19.430908 C 1631.224243 24.198486 1640.259277 29.809082 1648.267212 36.176758 Z M 634.857666 720.892822 C 625.657776 741.577637 616.989441 762.484131 608.838318 783.577515 C 326.317932 787.808838 129.765289 694.330688 139.726563 651.359375 C 159.291 566.96167 399.679321 601.780518 634.857666 720.892822 Z M 524.5 10 C 660.085938 10 770 119.914063 770 255.5 C 770 391.085938 660.085938 501 524.5 501 C 388.914093 501 279 391.085938 279 255.5 C 279 119.914063 388.914093 10 524.5 10 Z"/>
</svg>
